;TYPE=PLATED
;Layer: PTH_Through
;EasyEDA Pro v2.2.37.7, 2025-04-12 02:56:20
;Gerber Generator version 0.3
M48
METRIC,LZ,0000.00000
;Hole size 1 = 0.30500 METRIC
T01C0.30500
;Hole size 2 = 0.71120 METRIC
T02C0.71120
;Hole size 3 = 0.90002 METRIC
T03C0.90002
;Hole size 4 = 0.91440 METRIC
T04C0.91440
;Hole size 5 = 1.00000 METRIC
T05C1.00000
;Hole size 6 = 1.20000 METRIC
T06C1.20000
;Hole size 7 = 1.40000 METRIC
T07C1.40000
;Hole size 8 = 1.50002 METRIC
T08C1.50002
%
G05
G90
T01
X0.762Y-42.42664
X-3.175Y-43.80636
X4.064Y-47.10836
X5.334Y-50.66436
X1.016Y-51.17236
X0.762Y-43.688
X8.68299Y-50.50887
X-11.89101Y-47.46087
X6.17499Y-50.66601
X-0.365Y-47.11001
X-6.68299Y-56.25401
X4.937Y-46.95287
X-1.524Y-45.07636
X3.048Y-45.07636
X-22.82688Y-45.339
X6.096Y-43.56964
X2.54Y-39.37
X19.304Y-54.737
X-9.525Y-41.275
T02
X22.098Y-54.737
X22.098Y-57.277
X22.098Y-59.817
X22.098Y-62.357
T03
X25.2095Y-45.2755
X25.146Y-48.768
X10.45949Y-39.33449
X7.66549Y-39.33449
X-10.287Y-39.243
X-13.22581Y-39.27399
X0.762Y-39.37
X4.318Y-39.37
T04
X22.32Y-40.87401
X20.32Y-40.87401
X18.32Y-40.87401
X22.32Y-38.37399
X20.32Y-38.37399
X18.32Y-38.37399
T05
X-3.429Y-39.243
X-5.969Y-39.243
T06
X-21.336Y-40.259
X-25.36688Y-63.97087
X-22.82688Y-63.97087
X-20.28688Y-63.97087
X-17.74688Y-63.97087
X-15.20688Y-63.97087
X-12.66688Y-63.97087
X-10.12688Y-63.97087
X-25.36688Y-48.73087
X-22.82688Y-48.73087
X-20.28688Y-48.73087
X-17.74688Y-48.73087
X-15.20688Y-48.73087
X-12.66688Y-48.73087
X-10.12688Y-48.73087
T07
X-23.876Y-37.719
X-23.876Y-42.799
X-18.796Y-42.799
X-18.796Y-37.719
T08
X25.42004Y-39.6242
X15.21976Y-39.6242
M30