G04 Layer: TopSolderMaskLayer*
G04 EasyEDA Pro v2.2.37.7, 2025-04-12 02:56:20*
G04 Gerber Generator version 0.3*
G04 Scale: 100 percent, Rotated: No, Reflected: No*
G04 Dimensions in millimeters*
G04 Leading zeros omitted, absolute positions, 4 integers and 5 decimals*
%FSLAX45Y45*%
%MOMM*%
%AMRoundRect*1,1,$1,$2,$3*1,1,$1,$4,$5*1,1,$1,0-$2,0-$3*1,1,$1,0-$4,0-$5*20,1,$1,$2,$3,$4,$5,0*20,1,$1,$4,$5,0-$2,0-$3,0*20,1,$1,0-$2,0-$3,0-$4,0-$5,0*20,1,$1,0-$4,0-$5,$2,$3,0*4,1,4,$2,$3,$4,$5,0-$2,0-$3,0-$4,0-$5,$2,$3,0*%
%ADD10RoundRect,0.09551X-0.70324X-0.70324X-0.70324X0.70324*%
%ADD11RoundRect,0.09551X0.70324X0.70324X0.70324X-0.70324*%
%ADD12RoundRect,0.09551X-0.70324X0.70324X0.70324X0.70324*%
%ADD13RoundRect,0.09654X0.85273X-0.85273X-0.85273X-0.85273*%
%ADD14C,1.802*%
%ADD15RoundRect,0.09138X-0.43712X-0.40835X-0.43712X0.40835*%
%ADD16RoundRect,0.09138X0.43712X0.40835X0.43712X-0.40835*%
%ADD17C,1.3974*%
%ADD18RoundRect,0.09506X0.65117X0.65117X0.65117X-0.65117*%
%ADD19RoundRect,0.09412X0.75294X1.25294X0.75294X-1.25294*%
%ADD20C,2.102*%
%ADD21C,1.626*%
%ADD22C,2.602*%
%ADD23RoundRect,0.09681X-0.90259X0.90259X0.90259X0.90259*%
%ADD24C,1.902*%
G75*


G04 Pad Start*
G54D10*
G01X2520950Y-4527550D03*
G01X2514600Y-4876800D03*
G54D11*
G01X1045949Y-3933449D03*
G54D10*
G01X766549Y-3933449D03*
G54D12*
G01X-1028700Y-3924300D03*
G01X-1322581Y-3927399D03*
G54D13*
G01X-342900Y-3924300D03*
G54D14*
G01X-596900Y-3924300D03*
G54D15*
G01X-50800Y-4369664D03*
G01X-50800Y-4520336D03*
G01X-876300Y-4369664D03*
G01X-876300Y-4520336D03*
G54D16*
G01X-533400Y-4533036D03*
G01X-533400Y-4382364D03*
G54D15*
G01X469900Y-4356964D03*
G01X469900Y-4507636D03*
G01X203200Y-4356964D03*
G01X203200Y-4507636D03*
G54D17*
G01X2209800Y-5473700D03*
G01X2209800Y-5727700D03*
G01X2209800Y-5981700D03*
G54D18*
G01X2209800Y-6235700D03*
G54D19*
G01X1144499Y-4888801D03*
G01X944499Y-4888801D03*
G01X744499Y-4888801D03*
G01X544500Y-4888801D03*
G01X344500Y-4888801D03*
G01X144501Y-4888801D03*
G01X-55499Y-4888801D03*
G01X-255499Y-4888801D03*
G01X-255499Y-6388798D03*
G01X-55499Y-6388798D03*
G01X144501Y-6388798D03*
G01X344500Y-6388798D03*
G01X544500Y-6388798D03*
G01X744499Y-6388798D03*
G01X944499Y-6388798D03*
G01X1144499Y-6388798D03*
G54D20*
G01X-2133600Y-4025900D03*
G01X-2387600Y-3771900D03*
G01X-2387600Y-4279900D03*
G01X-1879600Y-4279900D03*
G01X-1879600Y-3771900D03*
G54D21*
G01X2231995Y-4087404D03*
G01X2031995Y-4087404D03*
G01X1831995Y-4087404D03*
G01X2231995Y-3837417D03*
G01X2031995Y-3837417D03*
G01X1831995Y-3837417D03*
G54D22*
G01X2542002Y-3962410D03*
G01X1521988Y-3962410D03*
G54D12*
G01X76200Y-3937000D03*
G01X431800Y-3937000D03*
G54D23*
G01X-2536688Y-6397087D03*
G54D24*
G01X-2282688Y-6397087D03*
G01X-2028688Y-6397087D03*
G01X-1774688Y-6397087D03*
G01X-1520688Y-6397087D03*
G01X-1266688Y-6397087D03*
G01X-1012688Y-6397087D03*
G54D23*
G01X-2536688Y-4873087D03*
G54D24*
G01X-2282688Y-4873087D03*
G01X-2028688Y-4873087D03*
G01X-1774688Y-4873087D03*
G01X-1520688Y-4873087D03*
G01X-1266688Y-4873087D03*
G01X-1012688Y-4873087D03*
G04 Pad End*

M02*

