G04 Layer: TopLayer*
G04 EasyEDA Pro v2.2.37.7, 2025-04-12 02:56:20*
G04 Gerber Generator version 0.3*
G04 Scale: 100 percent, Rotated: No, Reflected: No*
G04 Dimensions in millimeters*
G04 Leading zeros omitted, absolute positions, 4 integers and 5 decimals*
%FSLAX45Y45*%
%MOMM*%
%ADD10R,1.4X1.4*%
%ADD11R,1.4X1.4*%
%ADD12R,1.4X1.4*%
%ADD13R,1.7X1.7*%
%ADD14C,1.7*%
%ADD15R,0.86401X0.80648*%
%ADD16R,0.86401X0.80648*%
%ADD17C,1.2954*%
%ADD18R,1.2954X1.2954*%
%ADD19R,1.5X2.49999*%
%ADD20C,2.0*%
%ADD21C,1.524*%
%ADD22C,2.49999*%
%ADD23R,1.8X1.8*%
%ADD24C,1.8*%
%ADD25C,0.61*%
%ADD26C,0.254*%
G75*


G04 Pad Start*
G54D10*
G01X2520950Y-4527550D03*
G01X2514600Y-4876800D03*
G54D11*
G01X1045949Y-3933449D03*
G54D10*
G01X766549Y-3933449D03*
G54D12*
G01X-1028700Y-3924300D03*
G01X-1322581Y-3927399D03*
G54D13*
G01X-342900Y-3924300D03*
G54D14*
G01X-596900Y-3924300D03*
G54D15*
G01X-50800Y-4369664D03*
G01X-50800Y-4520336D03*
G01X-876300Y-4369664D03*
G01X-876300Y-4520336D03*
G54D16*
G01X-533400Y-4533036D03*
G01X-533400Y-4382364D03*
G54D15*
G01X469900Y-4356964D03*
G01X469900Y-4507636D03*
G01X203200Y-4356964D03*
G01X203200Y-4507636D03*
G54D17*
G01X2209800Y-5473700D03*
G01X2209800Y-5727700D03*
G01X2209800Y-5981700D03*
G54D18*
G01X2209800Y-6235700D03*
G54D19*
G01X1144499Y-4888801D03*
G01X944499Y-4888801D03*
G01X744499Y-4888801D03*
G01X544500Y-4888801D03*
G01X344500Y-4888801D03*
G01X144501Y-4888801D03*
G01X-55499Y-4888801D03*
G01X-255499Y-4888801D03*
G01X-255499Y-6388798D03*
G01X-55499Y-6388798D03*
G01X144501Y-6388798D03*
G01X344500Y-6388798D03*
G01X544500Y-6388798D03*
G01X744499Y-6388798D03*
G01X944499Y-6388798D03*
G01X1144499Y-6388798D03*
G54D20*
G01X-2133600Y-4025900D03*
G01X-2387600Y-3771900D03*
G01X-2387600Y-4279900D03*
G01X-1879600Y-4279900D03*
G01X-1879600Y-3771900D03*
G54D21*
G01X2231995Y-4087404D03*
G01X2031995Y-4087404D03*
G01X1831995Y-4087404D03*
G01X2231995Y-3837417D03*
G01X2031995Y-3837417D03*
G01X1831995Y-3837417D03*
G54D22*
G01X2542002Y-3962410D03*
G01X1521988Y-3962410D03*
G54D12*
G01X76200Y-3937000D03*
G01X431800Y-3937000D03*
G54D23*
G01X-2536688Y-6397087D03*
G54D24*
G01X-2282688Y-6397087D03*
G01X-2028688Y-6397087D03*
G01X-1774688Y-6397087D03*
G01X-1520688Y-6397087D03*
G01X-1266688Y-6397087D03*
G01X-1012688Y-6397087D03*
G54D23*
G01X-2536688Y-4873087D03*
G54D24*
G01X-2282688Y-4873087D03*
G01X-2028688Y-4873087D03*
G01X-1774688Y-4873087D03*
G01X-1520688Y-4873087D03*
G01X-1266688Y-4873087D03*
G01X-1012688Y-4873087D03*
G04 Pad End*

G04 Via Start*
G54D25*
G01X76200Y-4242664D03*
G01X-317500Y-4380636D03*
G01X406400Y-4710836D03*
G01X533400Y-5066436D03*
G01X101600Y-5117236D03*
G01X76200Y-4368800D03*
G01X868299Y-5050887D03*
G01X-1189101Y-4746087D03*
G01X617499Y-5066601D03*
G01X-36500Y-4711001D03*
G01X-668299Y-5625401D03*
G01X493700Y-4695287D03*
G01X-152400Y-4507636D03*
G01X304800Y-4507636D03*
G01X-2282688Y-4533900D03*
G01X609600Y-4356964D03*
G01X254000Y-3937000D03*
G01X1930400Y-5473700D03*
G01X-952500Y-4127500D03*
G04 Via End*

G04 Track Start*
G54D26*
G01X-55499Y-6388798D02*
G01X-55499Y-6337998D01*
G01X-817499Y-5575998D01*
G01X-817499Y-4813998D01*
G01X-1830727Y-3800770D01*
G01X-1850730Y-3800770D01*
G01X-1879600Y-3771900D01*
G01X-50800Y-4369664D02*
G01X76200Y-4242664D01*
G01X-1028700Y-3924300D02*
G01X-876300Y-4076700D01*
G01X-876300Y-4369664D01*
G01X-50800Y-4520336D02*
G01X-50800Y-4494936D01*
G01X-101600Y-4444136D01*
G01X203200Y-4507636D02*
G01X406400Y-4710836D01*
G01X544500Y-6388798D02*
G01X533400Y-6377699D01*
G01X2031995Y-3837417D02*
G01X1916613Y-3952799D01*
G01X1738813Y-3952799D01*
G01X744499Y-6388798D02*
G01X744499Y-6439598D01*
G01X634611Y-6549487D01*
G01X-1622288Y-6549487D01*
G01X-1774688Y-6397087D01*
G01X1045949Y-3933449D02*
G01X817349Y-4162049D01*
G01X-313085Y-4162049D01*
G01X-533400Y-4382364D01*
G01X-738327Y-4382364D01*
G01X-876300Y-4520336D01*
G01X944499Y-4888801D02*
G01X944499Y-4974687D01*
G01X868299Y-5050887D01*
G01X-1189101Y-4746087D02*
G01X-1393688Y-4746087D01*
G01X-1520688Y-4873087D01*
G01X744499Y-4888801D02*
G01X744499Y-4939601D01*
G01X617499Y-5066601D01*
G01X344500Y-4888801D02*
G01X344500Y-4838001D01*
G01X217500Y-4711001D01*
G01X-36500Y-4711001D01*
G01X144501Y-4888801D02*
G01X144501Y-4965001D01*
G01X-515899Y-5625401D01*
G01X-668299Y-5625401D01*
G01X544500Y-4888801D02*
G01X544500Y-4746087D01*
G01X493700Y-4695287D01*
G01X-533400Y-4533036D02*
G01X-177800Y-4533036D01*
G01X-152400Y-4507636D01*
G01X304800Y-4507636D02*
G01X469900Y-4507636D01*
G01X-101600Y-4444136D02*
G01X-254000Y-4444136D01*
G01X-317500Y-4380636D01*
G01X1738813Y-3952799D02*
G01X1545214Y-3759200D01*
G01X-1154382Y-3759200D01*
G01X-1322581Y-3927399D01*
G01X710298Y-6096000D02*
G01X2070100Y-6096000D01*
G01X2209800Y-6235700D01*
G01X520701Y-6412598D02*
G01X520700Y-6285598D01*
G01X533400Y-6272898D01*
G01X710298Y-6096000D01*
G01X533400Y-6377699D02*
G01X533400Y-6272898D01*
G01X2286000Y-4851400D02*
G01X2311400Y-4876800D01*
G01X2514600Y-4876800D01*
G01X2031995Y-3837417D02*
G01X2169678Y-3975100D01*
G01X2324100Y-3975100D01*
G01X2413000Y-4064000D01*
G01X2413000Y-4241800D01*
G01X2286000Y-4368800D01*
G01X2286000Y-4851400D01*
G01X-2282688Y-4873087D02*
G01X-2282688Y-4533900D01*
G01X469900Y-4356964D02*
G01X609600Y-4356964D01*
G01X431800Y-3937000D02*
G01X254000Y-3937000D01*
G01X2209800Y-5473700D02*
G01X1930400Y-5473700D01*
G01X-2094801Y-3988498D02*
G01X-2132901Y-4026598D01*
G01X-255499Y-6388798D02*
G01X-255499Y-6205061D01*
G01X-864919Y-5595641D01*
G01X-864919Y-4833641D01*
G01X-1710061Y-3988498D01*
G01X-2094801Y-3988498D01*
G01X533400Y-6272898D02*
G01X533400Y-5066436D01*
G01X152400Y-5066436D02*
G01X101600Y-5117236D01*
G01X533400Y-5066436D02*
G01X152400Y-5066436D01*
G01X-255499Y-4888801D02*
G01X-559498Y-4888801D01*
G01X-825500Y-4622800D02*
G01X-939800Y-4622800D01*
G01X-1079500Y-4483100D01*
G01X-1079500Y-4216400D01*
G01X-990600Y-4127500D01*
G01X-952500Y-4127500D01*
G01X-559498Y-4888801D02*
G01X-825500Y-4622800D01*
G01X76200Y-4368800D02*
G01X191364Y-4368800D01*
G01X203200Y-4356964D01*
G04 Track End*

M02*

