G04 Layer: DrillDrawingLayer*
G04 EasyEDA Pro v2.2.37.7, 2025-04-12 02:56:20*
G04 Gerber Generator version 0.3*
G04 Scale: 100 percent, Rotated: No, Reflected: No*
G04 Dimensions in millimeters*
G04 Leading zeros omitted, absolute positions, 4 integers and 5 decimals*
%FSLAX45Y45*%
%MOMM*%
%AMIconRect*4,1,4,0.2,-0.2,-0.2,-0.2,-0.2,0.2,0.2,0.2,0.2,-0.2,0*4,0,4,0.166667,-0.166667,0.166667,0.166667,-0.166667,0.166667,-0.166667,-0.166667,0.166667,-0.166667,0*%
%AMIconTriangle*4,1,3,-0.242567,0.171767,0.242567,0.171767,0,-0.2706,-0.242567,0.171767,0*4,0,3,-0.189767,0.1386,0,-0.1953,0.190167,0.1386,-0.189767,0.1386,0*%
%AMIconStar6*4,1,12,0.0862,0.1492,0.213233,0.123367,0.172367,0,0.213233,-0.1229,0.0862,-0.148733,0,-0.245767,-0.085767,-0.148733,-0.213267,-0.1229,-0.171933,0,-0.213267,0.1229,-0.085767,0.1492,0,0.245767,0.0862,0.1492,0*4,0,12,-0.000333,0.195333,-0.064333,0.122667,-0.169667,0.097667,-0.138333,-0.005333,-0.169667,-0.098,-0.064333,-0.122667,-0.000333,-0.195667,0.064333,-0.122667,0.169667,-0.098,0.138667,0.005,0.169667,0.098,0.064333,0.122333,-0.000333,0.195333,0*%
%AMIconStar4*4,1,8,-0.222667,0.222667,0,0.144667,0.222667,0.222667,0.144667,0,0.222667,-0.222667,0,-0.144667,-0.217433,-0.222667,-0.144667,0,-0.222667,0.222667,0*4,0,8,0.166667,-0.166667,0.108,0,0.166667,0.166667,0,0.108,-0.166667,0.166667,-0.108,0,-0.166667,-0.166667,0,-0.108,0.166667,-0.166667,0*%
%AMIconPlus*4,1,12,0.124,-0.2,-0.124,-0.2,-0.124,-0.124,-0.2,-0.124,-0.2,0.124,-0.124,0.124,-0.124,0.2,0.124,0.2,0.124,0.124,0.2,0.124,0.2,-0.124,0.124,-0.124,0.124,-0.2,0*4,0,12,0.090667,-0.166667,0.090667,-0.090667,0.166667,-0.090667,0.166667,0.090667,0.090667,0.090667,0.090667,0.166667,-0.090667,0.166667,-0.090667,0.090667,-0.166667,0.090667,-0.166667,-0.090667,-0.090667,-0.090667,-0.090667,-0.166667,0.090667,-0.166667,0*%
%AMIconX*4,1,16,0.2,-0.2,0.054533,-0.2,0,-0.145467,-0.054533,-0.2,-0.2,-0.2,-0.2,-0.054533,-0.145467,0,-0.2,0.054533,-0.2,0.2,-0.054533,0.2,0,0.145467,0.054533,0.2,0.2,0.2,0.2,0.054533,0.145467,0,0.2,-0.054533,0.2,-0.2,0*4,0,16,0.1668,-0.1664,0.1668,-0.068467,0.097933,0.000067,0.1668,0.068467,0.1668,0.1665,0.068467,0.1665,0,0.097933,-0.068467,0.1665,-0.1668,0.1665,-0.1668,0.068467,-0.097933,0.000067,-0.1668,-0.068467,-0.1668,-0.1664,-0.068467,-0.1664,0,-0.097933,0.068467,-0.1664,0.1668,-0.1664,0*%
%AMIconDiamond*4,1,4,0,-0.26,-0.26,0,0,0.26,0.26,0,0,-0.26,0*4,0,4,0,-0.203433,0.203433,0,0,0.2036,-0.203433,0,0,-0.203433,0*%
%ADD10IconRect*%
%ADD11C,0.44X0.373333*%
%ADD12IconTriangle*%
%ADD13IconStar6*%
%ADD14IconStar4*%
%ADD15IconPlus*%
%ADD16IconX*%
%ADD17IconDiamond*%
G75*


G04 Drill Drawing Start*
G54D10*
G01X-596900Y-3924300D03*
G01X-342900Y-3924300D03*
G54D11*
G01X1521976Y-3962420D03*
G01X2542004Y-3962420D03*
G54D12*
G01X2209800Y-6235700D03*
G01X2209800Y-5981700D03*
G01X2209800Y-5727700D03*
G01X2209800Y-5473700D03*
G54D13*
G01X-2387600Y-4279900D03*
G01X-2387600Y-3771900D03*
G01X-1879600Y-4279900D03*
G01X-1879600Y-3771900D03*
G54D14*
G01X1832000Y-4087401D03*
G01X1832000Y-3837399D03*
G01X2032000Y-4087401D03*
G01X2032000Y-3837399D03*
G01X2232000Y-4087401D03*
G01X2232000Y-3837399D03*
G54D15*
G01X-1322581Y-3927399D03*
G01X-1028700Y-3924300D03*
G01X76200Y-3937000D03*
G01X431800Y-3937000D03*
G01X766549Y-3933449D03*
G01X1045949Y-3933449D03*
G01X2514600Y-4876800D03*
G01X2520950Y-4527550D03*
G54D16*
G01X-2536688Y-6397087D03*
G01X-2536688Y-4873087D03*
G01X-2282688Y-6397087D03*
G01X-2282688Y-4873087D03*
G01X-2133600Y-4025900D03*
G01X-2028688Y-6397087D03*
G01X-2028688Y-4873087D03*
G01X-1774688Y-6397087D03*
G01X-1774688Y-4873087D03*
G01X-1520688Y-6397087D03*
G01X-1520688Y-4873087D03*
G01X-1266688Y-6397087D03*
G01X-1266688Y-4873087D03*
G01X-1012688Y-6397087D03*
G01X-1012688Y-4873087D03*
G54D17*
G01X-2282688Y-4533900D03*
G01X-1189101Y-4746087D03*
G01X-952500Y-4127500D03*
G01X-668299Y-5625401D03*
G01X-317500Y-4380636D03*
G01X-152400Y-4507636D03*
G01X-36500Y-4711001D03*
G01X76200Y-4368800D03*
G01X76200Y-4242664D03*
G01X101600Y-5117236D03*
G01X254000Y-3937000D03*
G01X304800Y-4507636D03*
G01X406400Y-4710836D03*
G01X493700Y-4695287D03*
G01X533400Y-5066436D03*
G01X609600Y-4356964D03*
G01X617499Y-5066601D03*
G01X868299Y-5050887D03*
G01X1930400Y-5473700D03*
G04 Drill Drawing End*

M02*

